<svg width="1024" height="1024" viewBox="0 0 1024 1024" fill="none" xmlns="http://www.w3.org/2000/svg" role="img" aria-labelledby="title desc">
  <title id="title">Prospector app icon</title>
  <desc id="desc">Icône Prospector avec marqueur de localisation, commerce local, loupe et signaux de prospection web.</desc>
  <defs>
    <linearGradient id="bg" x1="0" y1="0" x2="1024" y2="1024" gradientUnits="userSpaceOnUse">
      <stop offset="0" stop-color="#071B4D"/>
      <stop offset="0.48" stop-color="#071426"/>
      <stop offset="1" stop-color="#020817"/>
    </linearGradient>
    <linearGradient id="pinGradient" x1="284" y1="111" x2="735" y2="850" gradientUnits="userSpaceOnUse">
      <stop offset="0" stop-color="#23D3FF"/>
      <stop offset="0.5" stop-color="#2563EB"/>
      <stop offset="1" stop-color="#7CFF6B"/>
    </linearGradient>
    <linearGradient id="shopGradient" x1="365" y1="331" x2="660" y2="576" gradientUnits="userSpaceOnUse">
      <stop offset="0" stop-color="#E9FBFF"/>
      <stop offset="1" stop-color="#74F7C1"/>
    </linearGradient>
    <linearGradient id="lensGradient" x1="594" y1="520" x2="809" y2="735" gradientUnits="userSpaceOnUse">
      <stop offset="0" stop-color="#E8FAFF"/>
      <stop offset="0.52" stop-color="#2EE8FF"/>
      <stop offset="1" stop-color="#39FF88"/>
    </linearGradient>
    <filter id="softGlow" x="-30%" y="-30%" width="160%" height="160%">
      <feGaussianBlur stdDeviation="18" result="blur"/>
      <feColorMatrix in="blur" type="matrix" values="0 0 0 0 0.02 0 0 0 0 0.75 0 0 0 0 1 0 0 0 0.8 0" result="glow"/>
      <feMerge>
        <feMergeNode in="glow"/>
        <feMergeNode in="SourceGraphic"/>
      </feMerge>
    </filter>
    <filter id="shadow" x="-20%" y="-20%" width="140%" height="140%">
      <feDropShadow dx="0" dy="24" stdDeviation="28" flood-color="#000000" flood-opacity="0.45"/>
    </filter>
  </defs>
  <rect width="1024" height="1024" fill="url(#bg)"/>
  <g opacity="0.22" stroke="#2DD4FF" stroke-width="3" stroke-linecap="round">
    <path d="M120 715 C235 658 306 610 385 640"/>
    <path d="M112 409 C234 452 315 430 386 360"/>
    <path d="M665 327 C748 294 844 307 932 390"/>
    <path d="M694 735 C788 694 837 641 936 618"/>
    <circle cx="120" cy="715" r="9" fill="#2DD4FF"/>
    <circle cx="386" cy="640" r="9" fill="#2DD4FF"/>
    <circle cx="112" cy="409" r="9" fill="#2DD4FF"/>
    <circle cx="386" cy="360" r="9" fill="#2DD4FF"/>
    <circle cx="665" cy="327" r="9" fill="#2DD4FF"/>
    <circle cx="932" cy="390" r="9" fill="#7CFF6B"/>
    <circle cx="694" cy="735" r="9" fill="#2DD4FF"/>
    <circle cx="936" cy="618" r="9" fill="#7CFF6B"/>
  </g>
  <ellipse cx="512" cy="800" rx="228" ry="48" fill="#22D3EE" opacity="0.18"/>
  <ellipse cx="512" cy="800" rx="142" ry="28" fill="#7CFF6B" opacity="0.12"/>
  <g filter="url(#shadow)">
    <path d="M512 133 C354 133 226 260 226 416 C226 624 512 858 512 858 C512 858 798 624 798 416 C798 260 670 133 512 133Z" fill="url(#pinGradient)" opacity="0.96"/>
    <path d="M512 171 C375 171 264 281 264 416 C264 568 426 744 512 823 C598 744 760 568 760 416 C760 281 649 171 512 171Z" fill="#06152F" opacity="0.88"/>
    <path d="M512 133 C354 133 226 260 226 416 C226 624 512 858 512 858 C512 858 798 624 798 416 C798 260 670 133 512 133Z" stroke="#7DF9FF" stroke-width="8" opacity="0.72" filter="url(#softGlow)"/>
  </g>
  <g transform="translate(338 328)" filter="url(#softGlow)">
    <rect x="34" y="118" width="280" height="184" rx="26" fill="#0B1F46" stroke="#49E6FF" stroke-width="6"/>
    <path d="M62 52H286L324 126H24L62 52Z" fill="url(#shopGradient)"/>
    <path d="M24 126H84V154C84 174 70 190 54 190C38 190 24 174 24 154V126Z" fill="#23D3FF"/>
    <path d="M84 126H144V154C144 174 130 190 114 190C98 190 84 174 84 154V126Z" fill="#2563EB"/>
    <path d="M144 126H204V154C204 174 190 190 174 190C158 190 144 174 144 154V126Z" fill="#23D3FF"/>
    <path d="M204 126H264V154C264 174 250 190 234 190C218 190 204 174 204 154V126Z" fill="#3BFF8F"/>
    <path d="M264 126H324V154C324 174 310 190 294 190C278 190 264 174 264 154V126Z" fill="#A6FF64"/>
    <rect x="74" y="178" width="72" height="68" rx="10" fill="#071426" stroke="#2DD4FF" stroke-width="5"/>
    <rect x="198" y="174" width="64" height="128" rx="12" fill="#071426" stroke="#74F7C1" stroke-width="5"/>
    <circle cx="246" cy="238" r="6" fill="#74F7C1"/>
  </g>
  <g filter="url(#shadow)">
    <circle cx="668" cy="625" r="86" fill="#071426" stroke="url(#lensGradient)" stroke-width="22"/>
    <path d="M729 688L817 776" stroke="url(#lensGradient)" stroke-width="34" stroke-linecap="round"/>
    <circle cx="668" cy="625" r="42" fill="#0A1C3F" opacity="0.85"/>
  </g>
  <g filter="url(#softGlow)" stroke-linecap="round" stroke-linejoin="round">
    <path d="M374 687L430 631L482 673L560 562" stroke="#7CFF6B" stroke-width="22"/>
    <path d="M560 562L557 616L610 604" stroke="#7CFF6B" stroke-width="22"/>
    <rect x="371" y="722" width="32" height="76" rx="10" fill="#23D3FF"/>
    <rect x="426" y="692" width="32" height="106" rx="10" fill="#2EE8FF"/>
    <rect x="481" y="654" width="32" height="144" rx="10" fill="#7CFF6B"/>
  </g>
  <path d="M90 1H934C984 1 1023 40 1023 90V934C1023 984 984 1023 934 1023H90C40 1023 1 984 1 934V90C1 40 40 1 90 1Z" stroke="#FFFFFF" stroke-width="2" opacity="0.08"/>
  <path d="M210 111C357 24 633 26 787 119" stroke="#FFFFFF" stroke-width="8" opacity="0.13" stroke-linecap="round"/>
  <path d="M227 907C380 976 636 976 789 907" stroke="#2DD4FF" stroke-width="6" opacity="0.15" stroke-linecap="round"/>
</svg>
